<svg width="277" height="145" viewBox="0 0 277 145" fill="none" xmlns="http://www.w3.org/2000/svg">
<path d="M56.7929 76.288V76.096H66.7449V76.288H56.7929ZM63.1289 59.52L71.5449 83.808H73.8649V84H64.1209V83.808H67.4169L61.0809 64.208L54.2169 83.808H57.9929V84H50.9529V83.808H54.0089L62.5049 59.52H63.1289ZM76.0416 92.32C75.1563 92.32 74.4043 92.1547 73.7856 91.824C73.1563 91.4933 72.6816 91.0507 72.3616 90.496C72.031 89.952 71.8656 89.3653 71.8656 88.736C71.8656 88.0427 72.0683 87.5093 72.4736 87.136C72.8683 86.7627 73.3483 86.576 73.9136 86.576C74.223 86.576 74.527 86.6453 74.8256 86.784C75.135 86.9227 75.391 87.1307 75.5936 87.408C75.807 87.696 75.9136 88.064 75.9136 88.512C75.9136 88.9813 75.7163 89.4187 75.3216 89.824C74.9376 90.2293 74.447 90.432 73.8496 90.432C73.4976 90.432 73.1723 90.3573 72.8736 90.208C72.575 90.0693 72.3403 89.872 72.1696 89.616C71.9883 89.3707 71.8976 89.0773 71.8976 88.736H72.0576C72.0576 89.3547 72.2176 89.92 72.5376 90.432C72.847 90.944 73.2896 91.3493 73.8656 91.648C74.431 91.9573 75.0923 92.112 75.8496 92.112C76.575 92.112 77.1136 91.8507 77.4656 91.328C77.8176 90.8053 78.047 90.112 78.1536 89.248C78.271 88.3947 78.3243 87.4507 78.3136 86.416C78.303 85.3813 78.2976 84.3573 78.2976 83.344V69.472H75.6416V69.28H81.6096V84.368C81.6096 85.4133 81.5136 86.4107 81.3216 87.36C81.1296 88.32 80.815 89.168 80.3776 89.904C79.951 90.6507 79.3803 91.2373 78.6656 91.664C77.9616 92.1013 77.087 92.32 76.0416 92.32ZM79.7056 63.984C79.1083 63.984 78.6016 63.7707 78.1856 63.344C77.7696 62.9173 77.5616 62.4107 77.5616 61.824C77.5616 61.2267 77.7696 60.72 78.1856 60.304C78.6016 59.888 79.1083 59.68 79.7056 59.68C80.303 59.68 80.8043 59.888 81.2096 60.304C81.6256 60.72 81.8336 61.2267 81.8336 61.824C81.8336 62.4107 81.6256 62.9173 81.2096 63.344C80.8043 63.7707 80.303 63.984 79.7056 63.984ZM93.4464 84.32C91.9104 84.32 90.5824 83.968 89.4624 83.264C88.353 82.56 87.4944 81.6267 86.8864 80.464C86.2784 79.3013 85.9744 78.0267 85.9744 76.64C85.9744 75.2533 86.2784 73.9787 86.8864 72.816C87.4944 71.6533 88.353 70.72 89.4624 70.016C90.5824 69.312 91.9104 68.96 93.4464 68.96C94.9824 68.96 96.305 69.312 97.4144 70.016C98.5344 70.72 99.393 71.6533 99.9904 72.816C100.598 73.9787 100.902 75.2533 100.902 76.64C100.902 78.0267 100.598 79.3013 99.9904 80.464C99.393 81.6267 98.5344 82.56 97.4144 83.264C96.305 83.968 94.9824 84.32 93.4464 84.32ZM93.4464 84.128C94.2357 84.128 94.8757 83.8933 95.3664 83.424C95.857 82.9547 96.2304 82.3467 96.4864 81.6C96.753 80.8427 96.929 80.0267 97.0144 79.152C97.1104 78.2773 97.1584 77.44 97.1584 76.64C97.1584 75.8293 97.1104 74.992 97.0144 74.128C96.929 73.2533 96.753 72.4427 96.4864 71.696C96.2304 70.9387 95.857 70.3253 95.3664 69.856C94.8757 69.3867 94.2357 69.152 93.4464 69.152C92.657 69.152 92.017 69.3867 91.5264 69.856C91.0357 70.3253 90.657 70.9387 90.3904 71.696C90.1344 72.4427 89.9584 73.2533 89.8624 74.128C89.777 74.992 89.7344 75.8293 89.7344 76.64C89.7344 77.44 89.777 78.2773 89.8624 79.152C89.9584 80.0267 90.1344 80.8427 90.3904 81.6C90.657 82.3467 91.0357 82.9547 91.5264 83.424C92.017 83.8933 92.657 84.128 93.4464 84.128ZM92.2304 66.272L92.1184 66.128L95.0944 62.4C95.329 62.08 95.5957 61.8933 95.8944 61.84C96.193 61.7867 96.4704 61.824 96.7264 61.952C96.993 62.0693 97.1904 62.2347 97.3184 62.448C97.457 62.6613 97.5157 62.9067 97.4944 63.184C97.4837 63.4613 97.3984 63.7173 97.2384 63.952C97.089 64.176 96.881 64.336 96.6144 64.432L92.2304 66.272ZM120.152 84.48C118.797 84.48 117.64 84.2667 116.68 83.84C115.72 83.4027 114.925 82.8213 114.296 82.096L112.264 84.32H112.088V77.488H112.28C112.493 78.4267 112.797 79.3067 113.192 80.128C113.586 80.9387 114.088 81.6533 114.696 82.272C115.314 82.8907 116.05 83.376 116.904 83.728C117.768 84.08 118.776 84.256 119.928 84.256C121.026 84.256 121.981 84.0587 122.792 83.664C123.613 83.2587 124.248 82.6773 124.696 81.92C125.154 81.152 125.384 80.224 125.384 79.136C125.384 78.2187 125.149 77.4453 124.68 76.816C124.21 76.1867 123.592 75.6427 122.824 75.184C122.056 74.7147 121.213 74.2773 120.296 73.872C119.378 73.4667 118.456 73.0453 117.528 72.608C116.61 72.16 115.768 71.6373 115 71.04C114.242 70.432 113.629 69.7013 113.16 68.848C112.69 67.9947 112.456 66.9547 112.456 65.728C112.456 64.512 112.765 63.4507 113.384 62.544C114.013 61.6373 114.84 60.9333 115.864 60.432C116.888 59.9307 118.008 59.68 119.224 59.68C120.269 59.68 121.218 59.8453 122.072 60.176C122.925 60.5067 123.666 61.0133 124.296 61.696L126.296 59.68H126.472V66.416H126.28C126.002 64.9653 125.549 63.76 124.92 62.8C124.301 61.84 123.528 61.1253 122.6 60.656C121.682 60.176 120.648 59.936 119.496 59.936C118.024 59.936 116.909 60.3093 116.152 61.056C115.394 61.792 115.016 62.7627 115.016 63.968C115.016 64.8 115.245 65.504 115.704 66.08C116.162 66.656 116.765 67.168 117.512 67.616C118.269 68.0533 119.096 68.4747 119.992 68.88C120.898 69.2747 121.805 69.712 122.712 70.192C123.618 70.6613 124.445 71.216 125.192 71.856C125.938 72.496 126.541 73.2693 127 74.176C127.458 75.0827 127.688 76.1813 127.688 77.472C127.688 78.88 127.373 80.112 126.744 81.168C126.125 82.2133 125.245 83.0293 124.104 83.616C122.973 84.192 121.656 84.48 120.152 84.48ZM142.726 84.32C142.171 84.32 141.654 84.24 141.174 84.08C140.705 83.9307 140.326 83.6587 140.038 83.264C139.75 82.8587 139.606 82.2933 139.606 81.568V74.256C139.606 73.488 139.542 72.72 139.414 71.952C139.297 71.184 139.03 70.5493 138.614 70.048C138.209 69.5467 137.579 69.296 136.726 69.296C136.182 69.296 135.622 69.3653 135.046 69.504C134.47 69.632 133.937 69.824 133.446 70.08C132.966 70.336 132.577 70.656 132.278 71.04C131.979 71.4133 131.83 71.8453 131.83 72.336H131.638C131.638 71.76 131.835 71.3013 132.23 70.96C132.625 70.608 133.073 70.432 133.574 70.432C134.097 70.432 134.566 70.592 134.982 70.912C135.409 71.232 135.622 71.6853 135.622 72.272C135.622 72.944 135.403 73.44 134.966 73.76C134.539 74.0693 134.075 74.224 133.574 74.224C133.009 74.224 132.539 74.064 132.166 73.744C131.793 73.4133 131.606 72.944 131.606 72.336C131.606 71.8027 131.766 71.3333 132.086 70.928C132.417 70.5227 132.854 70.1813 133.398 69.904C133.953 69.616 134.577 69.3973 135.27 69.248C135.963 69.0987 136.673 69.024 137.398 69.024C138.913 69.024 140.065 69.2747 140.854 69.776C141.654 70.2667 142.198 70.912 142.486 71.712C142.774 72.512 142.918 73.36 142.918 74.256V82.432C142.918 82.8053 142.993 83.1253 143.142 83.392C143.302 83.6587 143.601 83.792 144.038 83.792C144.379 83.792 144.763 83.6373 145.19 83.328C145.617 83.008 145.958 82.5653 146.214 82L146.326 82.144C146.038 82.7947 145.574 83.3227 144.934 83.728C144.294 84.1227 143.558 84.32 142.726 84.32ZM135.046 84.32C133.659 84.32 132.55 83.968 131.718 83.264C130.897 82.5493 130.486 81.584 130.486 80.368C130.486 78.9387 131.089 77.84 132.294 77.072C133.51 76.2933 135.254 75.904 137.526 75.904H141.094V76.08H137.83C136.923 76.08 136.203 76.304 135.67 76.752C135.147 77.1893 134.769 77.7227 134.534 78.352C134.31 78.9707 134.198 79.5627 134.198 80.128C134.198 80.6613 134.262 81.1947 134.39 81.728C134.518 82.2613 134.737 82.7093 135.046 83.072C135.355 83.424 135.777 83.6 136.31 83.6C136.886 83.6 137.425 83.4133 137.926 83.04C138.438 82.656 138.843 82.0693 139.142 81.28C139.451 80.4907 139.606 79.4667 139.606 78.208H139.75C139.75 79.4347 139.579 80.5067 139.238 81.424C138.907 82.3413 138.395 83.056 137.702 83.568C137.019 84.0693 136.134 84.32 135.046 84.32ZM163.726 69.28V69.472H161.374L155.262 84.32H154.766L148.67 69.472H146.814V69.28H154.974V69.472H152.334L156.542 80.576L161.118 69.472H158.11V69.28H163.726ZM169.225 63.984C168.638 63.984 168.131 63.776 167.705 63.36C167.289 62.9333 167.081 62.4267 167.081 61.84C167.081 61.2427 167.289 60.736 167.705 60.32C168.131 59.904 168.638 59.696 169.225 59.696C169.833 59.696 170.339 59.904 170.745 60.32C171.161 60.736 171.369 61.2427 171.369 61.84C171.369 62.4267 171.161 62.9333 170.745 63.36C170.339 63.776 169.833 63.984 169.225 63.984ZM170.889 69.28V83.808H172.889V84H165.561V83.808H167.561V69.472H165.561V69.28H170.889ZM180.363 69.28V83.808H182.219V84H175.051V83.808H177.051V69.472H175.051V69.28H180.363ZM190.123 73.792V83.808H192.123V84H184.955V83.808H186.811V74.096C186.811 73.2 186.768 72.4 186.683 71.696C186.608 70.992 186.443 70.4427 186.187 70.048C185.931 69.6427 185.525 69.44 184.971 69.44C183.989 69.44 183.189 69.6907 182.571 70.192C181.963 70.6827 181.499 71.312 181.179 72.08C180.859 72.848 180.64 73.6587 180.523 74.512C180.416 75.3653 180.363 76.144 180.363 76.848L180.219 76.976C180.219 76.2187 180.272 75.3813 180.379 74.464C180.496 73.5467 180.731 72.672 181.083 71.84C181.435 70.9973 181.973 70.3093 182.699 69.776C183.424 69.232 184.395 68.96 185.611 68.96C186.837 68.96 187.776 69.168 188.427 69.584C189.077 70 189.52 70.576 189.755 71.312C190 72.0373 190.123 72.864 190.123 73.792ZM201.273 92.32C200.335 92.32 199.439 92.24 198.585 92.08C197.732 91.92 196.969 91.664 196.297 91.312C195.625 90.9707 195.097 90.5333 194.713 90C194.34 89.4667 194.153 88.8267 194.153 88.08C194.153 87.376 194.324 86.784 194.665 86.304C195.017 85.8347 195.449 85.4613 195.961 85.184C196.484 84.9067 197.007 84.7093 197.529 84.592C198.052 84.4747 198.495 84.416 198.857 84.416H199.001C198.361 84.8 197.94 85.2587 197.737 85.792C197.535 86.336 197.433 86.9813 197.433 87.728C197.433 88.4 197.588 89.072 197.897 89.744C198.207 90.416 198.676 90.9707 199.305 91.408C199.945 91.856 200.761 92.08 201.753 92.08C202.564 92.08 203.327 91.9733 204.041 91.76C204.767 91.5467 205.407 91.2373 205.961 90.832C206.516 90.4373 206.953 89.9573 207.273 89.392C207.604 88.8373 207.769 88.2187 207.769 87.536C207.769 86.8533 207.572 86.288 207.177 85.84C206.783 85.4027 206.276 85.072 205.657 84.848C205.039 84.624 204.383 84.512 203.689 84.512C203.465 84.512 203.113 84.512 202.633 84.512C202.153 84.512 201.673 84.512 201.193 84.512C200.713 84.512 200.356 84.512 200.121 84.512C198.628 84.512 197.428 84.2987 196.521 83.872C195.625 83.4453 195.177 82.752 195.177 81.792C195.177 81.216 195.332 80.7253 195.641 80.32C195.961 79.904 196.393 79.568 196.937 79.312C197.481 79.0453 198.1 78.848 198.793 78.72C199.487 78.592 200.212 78.528 200.969 78.528L200.953 78.688C200.623 78.688 200.26 78.72 199.865 78.784C199.481 78.848 199.108 78.96 198.745 79.12C198.393 79.2693 198.105 79.4613 197.881 79.696C197.657 79.92 197.545 80.192 197.545 80.512C197.545 81.0347 197.833 81.3547 198.409 81.472C198.985 81.5893 199.711 81.648 200.585 81.648C200.959 81.648 201.289 81.648 201.577 81.648C201.865 81.6373 202.143 81.632 202.409 81.632C202.676 81.6213 202.959 81.616 203.257 81.616C203.855 81.616 204.457 81.6747 205.065 81.792C205.673 81.9093 206.228 82.144 206.729 82.496C207.231 82.8373 207.631 83.3387 207.929 84C208.239 84.6613 208.393 85.536 208.393 86.624C208.393 87.6053 208.201 88.4533 207.817 89.168C207.444 89.8827 206.921 90.4693 206.249 90.928C205.588 91.3973 204.831 91.744 203.977 91.968C203.124 92.2027 202.223 92.32 201.273 92.32ZM200.889 78.704C200.217 78.704 199.529 78.6187 198.825 78.448C198.132 78.2667 197.492 77.984 196.905 77.6C196.319 77.216 195.844 76.7147 195.481 76.096C195.119 75.4773 194.937 74.7253 194.937 73.84C194.937 72.9547 195.119 72.2027 195.481 71.584C195.844 70.9653 196.319 70.464 196.905 70.08C197.492 69.696 198.132 69.4187 198.825 69.248C199.529 69.0667 200.217 68.976 200.889 68.976C201.572 68.976 202.255 69.0667 202.937 69.248C203.62 69.4187 204.244 69.696 204.809 70.08C205.385 70.464 205.844 70.9653 206.185 71.584C206.537 72.2027 206.713 72.9547 206.713 73.84C206.713 74.7253 206.537 75.4773 206.185 76.096C205.844 76.7147 205.385 77.216 204.809 77.6C204.244 77.984 203.62 78.2667 202.937 78.448C202.255 78.6187 201.572 78.704 200.889 78.704ZM200.889 78.512C201.465 78.512 201.935 78.288 202.297 77.84C202.671 77.392 202.943 76.8107 203.113 76.096C203.284 75.3813 203.369 74.6293 203.369 73.84C203.369 73.0293 203.284 72.2667 203.113 71.552C202.943 70.8373 202.671 70.2613 202.297 69.824C201.935 69.3867 201.465 69.168 200.889 69.168C200.313 69.168 199.844 69.3867 199.481 69.824C199.119 70.2613 198.847 70.8373 198.665 71.552C198.495 72.2667 198.409 73.0293 198.409 73.84C198.409 74.6293 198.457 75.3813 198.553 76.096C198.649 76.8107 198.868 77.392 199.209 77.84C199.561 78.288 200.121 78.512 200.889 78.512ZM209.705 73.52C209.279 73.52 208.884 73.3707 208.521 73.072C208.159 72.7733 207.977 72.3467 207.977 71.792C207.977 71.2267 208.159 70.8213 208.521 70.576C208.895 70.32 209.289 70.192 209.705 70.192C210.121 70.192 210.521 70.32 210.905 70.576C211.289 70.8213 211.481 71.1787 211.481 71.648H211.321C211.321 71.0827 211.108 70.5547 210.681 70.064C210.255 69.5627 209.636 69.312 208.825 69.312C208.377 69.312 207.887 69.4187 207.353 69.632C206.831 69.8453 206.345 70.2133 205.897 70.736C205.449 71.2587 205.119 71.984 204.905 72.912L204.761 72.832C204.975 71.872 205.316 71.1253 205.785 70.592C206.265 70.048 206.777 69.6693 207.321 69.456C207.876 69.232 208.372 69.12 208.809 69.12C209.375 69.12 209.86 69.2427 210.265 69.488C210.671 69.7333 210.98 70.0533 211.193 70.448C211.407 70.832 211.513 71.232 211.513 71.648C211.513 72.3627 211.321 72.8533 210.937 73.12C210.553 73.3867 210.143 73.52 209.705 73.52ZM214.005 84.32V79.664H214.197C214.304 80.5067 214.624 81.264 215.157 81.936C215.69 82.5973 216.357 83.1253 217.157 83.52C217.957 83.904 218.816 84.096 219.733 84.096C220.373 84.096 220.976 84 221.541 83.808C222.117 83.616 222.581 83.3173 222.933 82.912C223.285 82.496 223.461 81.952 223.461 81.28C223.461 80.6187 223.242 80.1013 222.805 79.728C222.368 79.3547 221.802 79.0507 221.109 78.816C220.426 78.5707 219.696 78.3307 218.917 78.096C218.149 77.8507 217.418 77.552 216.725 77.2C216.032 76.8373 215.466 76.352 215.029 75.744C214.602 75.136 214.389 74.336 214.389 73.344C214.389 72.6187 214.56 71.9253 214.901 71.264C215.242 70.6027 215.754 70.0587 216.437 69.632C217.12 69.2053 217.968 68.992 218.981 68.992C219.738 68.992 220.426 69.12 221.045 69.376C221.674 69.6213 222.218 69.9467 222.677 70.352L224.213 68.96H224.389V73.44H224.197C224.101 72.7467 223.824 72.0747 223.365 71.424C222.917 70.7733 222.32 70.24 221.573 69.824C220.826 69.408 219.968 69.2 218.997 69.2C218.41 69.2 217.882 69.2907 217.413 69.472C216.954 69.6533 216.586 69.9147 216.309 70.256C216.042 70.5973 215.909 71.008 215.909 71.488C215.909 72.096 216.138 72.5867 216.597 72.96C217.056 73.3333 217.642 73.6533 218.357 73.92C219.082 74.176 219.85 74.432 220.661 74.688C221.472 74.944 222.234 75.264 222.949 75.648C223.674 76.0213 224.266 76.5067 224.725 77.104C225.184 77.7013 225.413 78.48 225.413 79.44C225.413 80.432 225.162 81.296 224.661 82.032C224.17 82.7573 223.504 83.3227 222.661 83.728C221.829 84.1227 220.906 84.32 219.893 84.32C219.093 84.32 218.341 84.1867 217.637 83.92C216.933 83.6533 216.314 83.2907 215.781 82.832L214.181 84.32H214.005Z" fill="#088AB2"/>
</svg>
