<svg width="24" height="25" viewBox="0 0 24 25" fill="none" xmlns="http://www.w3.org/2000/svg">
<path d="M21 6.5H19M21 12.5H16M21 18.5H16M7 20.5V14.0612C7 13.8532 7 13.7492 6.97958 13.6497C6.96147 13.5615 6.93151 13.4761 6.89052 13.3958C6.84431 13.3054 6.77934 13.2242 6.64939 13.0617L3.35061 8.93826C3.22066 8.77583 3.15569 8.69461 3.10948 8.60417C3.06849 8.52393 3.03853 8.43852 3.02042 8.35026C3 8.25078 3 8.14677 3 7.93875V6.1C3 5.53995 3 5.25992 3.10899 5.04601C3.20487 4.85785 3.35785 4.70487 3.54601 4.60899C3.75992 4.5 4.03995 4.5 4.6 4.5H13.4C13.9601 4.5 14.2401 4.5 14.454 4.60899C14.6422 4.70487 14.7951 4.85785 14.891 5.04601C15 5.25992 15 5.53995 15 6.1V7.93875C15 8.14677 15 8.25078 14.9796 8.35026C14.9615 8.43852 14.9315 8.52393 14.8905 8.60417C14.8443 8.69461 14.7793 8.77583 14.6494 8.93826L11.3506 13.0617C11.2207 13.2242 11.1557 13.3054 11.1095 13.3958C11.0685 13.4761 11.0385 13.5615 11.0204 13.6497C11 13.7492 11 13.8532 11 14.0612V17.5L7 20.5Z" stroke="#98A2B3" stroke-width="2" stroke-linecap="round" stroke-linejoin="round"/>
</svg>
