<svg width="176" height="34" viewBox="0 0 176 34" fill="none" xmlns="http://www.w3.org/2000/svg">
<path d="M6.79288 17.288V17.096H16.7449V17.288H6.79288ZM13.1289 0.519999L21.5449 24.808H23.8649V25H14.1209V24.808H17.4169L11.0809 5.208L4.21688 24.808H7.99288V25H0.952875V24.808H4.00888L12.5049 0.519999H13.1289ZM26.0416 33.32C25.1563 33.32 24.4043 33.1547 23.7856 32.824C23.1563 32.4933 22.6816 32.0507 22.3616 31.496C22.031 30.952 21.8656 30.3653 21.8656 29.736C21.8656 29.0427 22.0683 28.5093 22.4736 28.136C22.8683 27.7627 23.3483 27.576 23.9136 27.576C24.223 27.576 24.527 27.6453 24.8256 27.784C25.135 27.9227 25.391 28.1307 25.5936 28.408C25.807 28.696 25.9136 29.064 25.9136 29.512C25.9136 29.9813 25.7163 30.4187 25.3216 30.824C24.9376 31.2293 24.447 31.432 23.8496 31.432C23.4976 31.432 23.1723 31.3573 22.8736 31.208C22.575 31.0693 22.3403 30.872 22.1696 30.616C21.9883 30.3707 21.8976 30.0773 21.8976 29.736H22.0576C22.0576 30.3547 22.2176 30.92 22.5376 31.432C22.847 31.944 23.2896 32.3493 23.8656 32.648C24.431 32.9573 25.0923 33.112 25.8496 33.112C26.575 33.112 27.1136 32.8507 27.4656 32.328C27.8176 31.8053 28.047 31.112 28.1536 30.248C28.271 29.3947 28.3243 28.4507 28.3136 27.416C28.303 26.3813 28.2976 25.3573 28.2976 24.344V10.472H25.6416V10.28H31.6096V25.368C31.6096 26.4133 31.5136 27.4107 31.3216 28.36C31.1296 29.32 30.815 30.168 30.3776 30.904C29.951 31.6507 29.3803 32.2373 28.6656 32.664C27.9616 33.1013 27.087 33.32 26.0416 33.32ZM29.7056 4.984C29.1083 4.984 28.6016 4.77067 28.1856 4.344C27.7696 3.91733 27.5616 3.41067 27.5616 2.824C27.5616 2.22667 27.7696 1.72 28.1856 1.304C28.6016 0.887999 29.1083 0.679998 29.7056 0.679998C30.303 0.679998 30.8043 0.887999 31.2096 1.304C31.6256 1.72 31.8336 2.22667 31.8336 2.824C31.8336 3.41067 31.6256 3.91733 31.2096 4.344C30.8043 4.77067 30.303 4.984 29.7056 4.984ZM43.4464 25.32C41.9104 25.32 40.5824 24.968 39.4624 24.264C38.353 23.56 37.4944 22.6267 36.8864 21.464C36.2784 20.3013 35.9744 19.0267 35.9744 17.64C35.9744 16.2533 36.2784 14.9787 36.8864 13.816C37.4944 12.6533 38.353 11.72 39.4624 11.016C40.5824 10.312 41.9104 9.96 43.4464 9.96C44.9824 9.96 46.305 10.312 47.4144 11.016C48.5344 11.72 49.393 12.6533 49.9904 13.816C50.5984 14.9787 50.9024 16.2533 50.9024 17.64C50.9024 19.0267 50.5984 20.3013 49.9904 21.464C49.393 22.6267 48.5344 23.56 47.4144 24.264C46.305 24.968 44.9824 25.32 43.4464 25.32ZM43.4464 25.128C44.2357 25.128 44.8757 24.8933 45.3664 24.424C45.857 23.9547 46.2304 23.3467 46.4864 22.6C46.753 21.8427 46.929 21.0267 47.0144 20.152C47.1104 19.2773 47.1584 18.44 47.1584 17.64C47.1584 16.8293 47.1104 15.992 47.0144 15.128C46.929 14.2533 46.753 13.4427 46.4864 12.696C46.2304 11.9387 45.857 11.3253 45.3664 10.856C44.8757 10.3867 44.2357 10.152 43.4464 10.152C42.657 10.152 42.017 10.3867 41.5264 10.856C41.0357 11.3253 40.657 11.9387 40.3904 12.696C40.1344 13.4427 39.9584 14.2533 39.8624 15.128C39.777 15.992 39.7344 16.8293 39.7344 17.64C39.7344 18.44 39.777 19.2773 39.8624 20.152C39.9584 21.0267 40.1344 21.8427 40.3904 22.6C40.657 23.3467 41.0357 23.9547 41.5264 24.424C42.017 24.8933 42.657 25.128 43.4464 25.128ZM42.2304 7.272L42.1184 7.128L45.0944 3.4C45.329 3.08 45.5957 2.89333 45.8944 2.84C46.193 2.78666 46.4704 2.824 46.7264 2.952C46.993 3.06933 47.1904 3.23466 47.3184 3.448C47.457 3.66133 47.5157 3.90667 47.4944 4.184C47.4837 4.46133 47.3984 4.71733 47.2384 4.952C47.089 5.176 46.881 5.336 46.6144 5.432L42.2304 7.272ZM70.1516 25.48C68.797 25.48 67.6396 25.2667 66.6796 24.84C65.7196 24.4027 64.925 23.8213 64.2956 23.096L62.2636 25.32H62.0876V18.488H62.2796C62.493 19.4267 62.797 20.3067 63.1916 21.128C63.5863 21.9387 64.0876 22.6533 64.6956 23.272C65.3143 23.8907 66.0503 24.376 66.9036 24.728C67.7676 25.08 68.7756 25.256 69.9276 25.256C71.0263 25.256 71.981 25.0587 72.7916 24.664C73.613 24.2587 74.2476 23.6773 74.6956 22.92C75.1543 22.152 75.3836 21.224 75.3836 20.136C75.3836 19.2187 75.149 18.4453 74.6796 17.816C74.2103 17.1867 73.5916 16.6427 72.8236 16.184C72.0556 15.7147 71.213 15.2773 70.2956 14.872C69.3783 14.4667 68.4556 14.0453 67.5276 13.608C66.6103 13.16 65.7676 12.6373 64.9996 12.04C64.2423 11.432 63.629 10.7013 63.1596 9.848C62.6903 8.99467 62.4556 7.95467 62.4556 6.728C62.4556 5.512 62.765 4.45067 63.3836 3.544C64.013 2.63733 64.8396 1.93333 65.8636 1.432C66.8876 0.930665 68.0076 0.679998 69.2236 0.679998C70.269 0.679998 71.2183 0.845332 72.0716 1.176C72.925 1.50667 73.6663 2.01333 74.2956 2.696L76.2956 0.679998H76.4716V7.416H76.2796C76.0023 5.96533 75.549 4.76 74.9196 3.8C74.301 2.84 73.5276 2.12533 72.5996 1.656C71.6823 1.176 70.6476 0.935999 69.4956 0.935999C68.0236 0.935999 66.909 1.30933 66.1516 2.056C65.3943 2.792 65.0156 3.76267 65.0156 4.968C65.0156 5.8 65.245 6.504 65.7036 7.08C66.1623 7.656 66.765 8.168 67.5116 8.616C68.269 9.05333 69.0956 9.47467 69.9916 9.88C70.8983 10.2747 71.805 10.712 72.7116 11.192C73.6183 11.6613 74.445 12.216 75.1916 12.856C75.9383 13.496 76.541 14.2693 76.9996 15.176C77.4583 16.0827 77.6876 17.1813 77.6876 18.472C77.6876 19.88 77.373 21.112 76.7436 22.168C76.125 23.2133 75.245 24.0293 74.1036 24.616C72.973 25.192 71.6556 25.48 70.1516 25.48ZM92.7261 25.32C92.1715 25.32 91.6541 25.24 91.1741 25.08C90.7048 24.9307 90.3261 24.6587 90.0381 24.264C89.7501 23.8587 89.6061 23.2933 89.6061 22.568V15.256C89.6061 14.488 89.5421 13.72 89.4141 12.952C89.2968 12.184 89.0301 11.5493 88.6141 11.048C88.2088 10.5467 87.5795 10.296 86.7261 10.296C86.1821 10.296 85.6221 10.3653 85.0461 10.504C84.4701 10.632 83.9368 10.824 83.4461 11.08C82.9661 11.336 82.5768 11.656 82.2781 12.04C81.9795 12.4133 81.8301 12.8453 81.8301 13.336H81.6381C81.6381 12.76 81.8355 12.3013 82.2301 11.96C82.6248 11.608 83.0728 11.432 83.5741 11.432C84.0968 11.432 84.5661 11.592 84.9821 11.912C85.4088 12.232 85.6221 12.6853 85.6221 13.272C85.6221 13.944 85.4035 14.44 84.9661 14.76C84.5395 15.0693 84.0755 15.224 83.5741 15.224C83.0088 15.224 82.5395 15.064 82.1661 14.744C81.7928 14.4133 81.6061 13.944 81.6061 13.336C81.6061 12.8027 81.7661 12.3333 82.0861 11.928C82.4168 11.5227 82.8541 11.1813 83.3981 10.904C83.9528 10.616 84.5768 10.3973 85.2701 10.248C85.9635 10.0987 86.6728 10.024 87.3981 10.024C88.9128 10.024 90.0648 10.2747 90.8541 10.776C91.6541 11.2667 92.1981 11.912 92.4861 12.712C92.7741 13.512 92.9181 14.36 92.9181 15.256V23.432C92.9181 23.8053 92.9928 24.1253 93.1421 24.392C93.3021 24.6587 93.6008 24.792 94.0381 24.792C94.3795 24.792 94.7635 24.6373 95.1901 24.328C95.6168 24.008 95.9581 23.5653 96.2141 23L96.3261 23.144C96.0381 23.7947 95.5741 24.3227 94.9341 24.728C94.2941 25.1227 93.5581 25.32 92.7261 25.32ZM85.0461 25.32C83.6595 25.32 82.5501 24.968 81.7181 24.264C80.8968 23.5493 80.4861 22.584 80.4861 21.368C80.4861 19.9387 81.0888 18.84 82.2941 18.072C83.5101 17.2933 85.2541 16.904 87.5261 16.904H91.0941V17.08H87.8301C86.9235 17.08 86.2035 17.304 85.6701 17.752C85.1475 18.1893 84.7688 18.7227 84.5341 19.352C84.3101 19.9707 84.1981 20.5627 84.1981 21.128C84.1981 21.6613 84.2621 22.1947 84.3901 22.728C84.5181 23.2613 84.7368 23.7093 85.0461 24.072C85.3555 24.424 85.7768 24.6 86.3101 24.6C86.8861 24.6 87.4248 24.4133 87.9261 24.04C88.4381 23.656 88.8435 23.0693 89.1421 22.28C89.4515 21.4907 89.6061 20.4667 89.6061 19.208H89.7501C89.7501 20.4347 89.5795 21.5067 89.2381 22.424C88.9075 23.3413 88.3955 24.056 87.7021 24.568C87.0195 25.0693 86.1341 25.32 85.0461 25.32ZM113.726 10.28V10.472H111.374L105.262 25.32H104.766L98.6701 10.472H96.8141V10.28H104.974V10.472H102.334L106.542 21.576L111.118 10.472H108.11V10.28H113.726ZM119.225 4.984C118.638 4.984 118.131 4.776 117.705 4.36C117.289 3.93333 117.081 3.42667 117.081 2.84C117.081 2.24266 117.289 1.736 117.705 1.32C118.131 0.903999 118.638 0.695999 119.225 0.695999C119.833 0.695999 120.339 0.903999 120.745 1.32C121.161 1.736 121.369 2.24266 121.369 2.84C121.369 3.42667 121.161 3.93333 120.745 4.36C120.339 4.776 119.833 4.984 119.225 4.984ZM120.889 10.28V24.808H122.889V25H115.561V24.808H117.561V10.472H115.561V10.28H120.889ZM130.363 10.28V24.808H132.219V25H125.051V24.808H127.051V10.472H125.051V10.28H130.363ZM140.123 14.792V24.808H142.123V25H134.955V24.808H136.811V15.096C136.811 14.2 136.768 13.4 136.683 12.696C136.608 11.992 136.443 11.4427 136.187 11.048C135.931 10.6427 135.525 10.44 134.971 10.44C133.989 10.44 133.189 10.6907 132.571 11.192C131.963 11.6827 131.499 12.312 131.179 13.08C130.859 13.848 130.64 14.6587 130.523 15.512C130.416 16.3653 130.363 17.144 130.363 17.848L130.219 17.976C130.219 17.2187 130.272 16.3813 130.379 15.464C130.496 14.5467 130.731 13.672 131.083 12.84C131.435 11.9973 131.973 11.3093 132.699 10.776C133.424 10.232 134.395 9.96 135.611 9.96C136.837 9.96 137.776 10.168 138.427 10.584C139.077 11 139.52 11.576 139.755 12.312C140 13.0373 140.123 13.864 140.123 14.792ZM151.273 33.32C150.335 33.32 149.439 33.24 148.585 33.08C147.732 32.92 146.969 32.664 146.297 32.312C145.625 31.9707 145.097 31.5333 144.713 31C144.34 30.4667 144.153 29.8267 144.153 29.08C144.153 28.376 144.324 27.784 144.665 27.304C145.017 26.8347 145.449 26.4613 145.961 26.184C146.484 25.9067 147.007 25.7093 147.529 25.592C148.052 25.4747 148.495 25.416 148.857 25.416H149.001C148.361 25.8 147.94 26.2587 147.737 26.792C147.535 27.336 147.433 27.9813 147.433 28.728C147.433 29.4 147.588 30.072 147.897 30.744C148.207 31.416 148.676 31.9707 149.305 32.408C149.945 32.856 150.761 33.08 151.753 33.08C152.564 33.08 153.327 32.9733 154.041 32.76C154.767 32.5467 155.407 32.2373 155.961 31.832C156.516 31.4373 156.953 30.9573 157.273 30.392C157.604 29.8373 157.769 29.2187 157.769 28.536C157.769 27.8533 157.572 27.288 157.177 26.84C156.783 26.4027 156.276 26.072 155.657 25.848C155.039 25.624 154.383 25.512 153.689 25.512C153.465 25.512 153.113 25.512 152.633 25.512C152.153 25.512 151.673 25.512 151.193 25.512C150.713 25.512 150.356 25.512 150.121 25.512C148.628 25.512 147.428 25.2987 146.521 24.872C145.625 24.4453 145.177 23.752 145.177 22.792C145.177 22.216 145.332 21.7253 145.641 21.32C145.961 20.904 146.393 20.568 146.937 20.312C147.481 20.0453 148.1 19.848 148.793 19.72C149.487 19.592 150.212 19.528 150.969 19.528L150.953 19.688C150.623 19.688 150.26 19.72 149.865 19.784C149.481 19.848 149.108 19.96 148.745 20.12C148.393 20.2693 148.105 20.4613 147.881 20.696C147.657 20.92 147.545 21.192 147.545 21.512C147.545 22.0347 147.833 22.3547 148.409 22.472C148.985 22.5893 149.711 22.648 150.585 22.648C150.959 22.648 151.289 22.648 151.577 22.648C151.865 22.6373 152.143 22.632 152.409 22.632C152.676 22.6213 152.959 22.616 153.257 22.616C153.855 22.616 154.457 22.6747 155.065 22.792C155.673 22.9093 156.228 23.144 156.729 23.496C157.231 23.8373 157.631 24.3387 157.929 25C158.239 25.6613 158.393 26.536 158.393 27.624C158.393 28.6053 158.201 29.4533 157.817 30.168C157.444 30.8827 156.921 31.4693 156.249 31.928C155.588 32.3973 154.831 32.744 153.977 32.968C153.124 33.2027 152.223 33.32 151.273 33.32ZM150.889 19.704C150.217 19.704 149.529 19.6187 148.825 19.448C148.132 19.2667 147.492 18.984 146.905 18.6C146.319 18.216 145.844 17.7147 145.481 17.096C145.119 16.4773 144.937 15.7253 144.937 14.84C144.937 13.9547 145.119 13.2027 145.481 12.584C145.844 11.9653 146.319 11.464 146.905 11.08C147.492 10.696 148.132 10.4187 148.825 10.248C149.529 10.0667 150.217 9.976 150.889 9.976C151.572 9.976 152.255 10.0667 152.937 10.248C153.62 10.4187 154.244 10.696 154.809 11.08C155.385 11.464 155.844 11.9653 156.185 12.584C156.537 13.2027 156.713 13.9547 156.713 14.84C156.713 15.7253 156.537 16.4773 156.185 17.096C155.844 17.7147 155.385 18.216 154.809 18.6C154.244 18.984 153.62 19.2667 152.937 19.448C152.255 19.6187 151.572 19.704 150.889 19.704ZM150.889 19.512C151.465 19.512 151.935 19.288 152.297 18.84C152.671 18.392 152.943 17.8107 153.113 17.096C153.284 16.3813 153.369 15.6293 153.369 14.84C153.369 14.0293 153.284 13.2667 153.113 12.552C152.943 11.8373 152.671 11.2613 152.297 10.824C151.935 10.3867 151.465 10.168 150.889 10.168C150.313 10.168 149.844 10.3867 149.481 10.824C149.119 11.2613 148.847 11.8373 148.665 12.552C148.495 13.2667 148.409 14.0293 148.409 14.84C148.409 15.6293 148.457 16.3813 148.553 17.096C148.649 17.8107 148.868 18.392 149.209 18.84C149.561 19.288 150.121 19.512 150.889 19.512ZM159.705 14.52C159.279 14.52 158.884 14.3707 158.521 14.072C158.159 13.7733 157.977 13.3467 157.977 12.792C157.977 12.2267 158.159 11.8213 158.521 11.576C158.895 11.32 159.289 11.192 159.705 11.192C160.121 11.192 160.521 11.32 160.905 11.576C161.289 11.8213 161.481 12.1787 161.481 12.648H161.321C161.321 12.0827 161.108 11.5547 160.681 11.064C160.255 10.5627 159.636 10.312 158.825 10.312C158.377 10.312 157.887 10.4187 157.353 10.632C156.831 10.8453 156.345 11.2133 155.897 11.736C155.449 12.2587 155.119 12.984 154.905 13.912L154.761 13.832C154.975 12.872 155.316 12.1253 155.785 11.592C156.265 11.048 156.777 10.6693 157.321 10.456C157.876 10.232 158.372 10.12 158.809 10.12C159.375 10.12 159.86 10.2427 160.265 10.488C160.671 10.7333 160.98 11.0533 161.193 11.448C161.407 11.832 161.513 12.232 161.513 12.648C161.513 13.3627 161.321 13.8533 160.937 14.12C160.553 14.3867 160.143 14.52 159.705 14.52ZM164.005 25.32V20.664H164.197C164.304 21.5067 164.624 22.264 165.157 22.936C165.69 23.5973 166.357 24.1253 167.157 24.52C167.957 24.904 168.816 25.096 169.733 25.096C170.373 25.096 170.976 25 171.541 24.808C172.117 24.616 172.581 24.3173 172.933 23.912C173.285 23.496 173.461 22.952 173.461 22.28C173.461 21.6187 173.242 21.1013 172.805 20.728C172.368 20.3547 171.802 20.0507 171.109 19.816C170.426 19.5707 169.696 19.3307 168.917 19.096C168.149 18.8507 167.418 18.552 166.725 18.2C166.032 17.8373 165.466 17.352 165.029 16.744C164.602 16.136 164.389 15.336 164.389 14.344C164.389 13.6187 164.56 12.9253 164.901 12.264C165.242 11.6027 165.754 11.0587 166.437 10.632C167.12 10.2053 167.968 9.992 168.981 9.992C169.738 9.992 170.426 10.12 171.045 10.376C171.674 10.6213 172.218 10.9467 172.677 11.352L174.213 9.96H174.389V14.44H174.197C174.101 13.7467 173.824 13.0747 173.365 12.424C172.917 11.7733 172.32 11.24 171.573 10.824C170.826 10.408 169.968 10.2 168.997 10.2C168.41 10.2 167.882 10.2907 167.413 10.472C166.954 10.6533 166.586 10.9147 166.309 11.256C166.042 11.5973 165.909 12.008 165.909 12.488C165.909 13.096 166.138 13.5867 166.597 13.96C167.056 14.3333 167.642 14.6533 168.357 14.92C169.082 15.176 169.85 15.432 170.661 15.688C171.472 15.944 172.234 16.264 172.949 16.648C173.674 17.0213 174.266 17.5067 174.725 18.104C175.184 18.7013 175.413 19.48 175.413 20.44C175.413 21.432 175.162 22.296 174.661 23.032C174.17 23.7573 173.504 24.3227 172.661 24.728C171.829 25.1227 170.906 25.32 169.893 25.32C169.093 25.32 168.341 25.1867 167.637 24.92C166.933 24.6533 166.314 24.2907 165.781 23.832L164.181 25.32H164.005Z" fill="white"/>
</svg>
