<svg width="25" height="25" viewBox="0 0 25 25" fill="none" xmlns="http://www.w3.org/2000/svg">
<path d="M12.44 12.5801H12.45M12.44 6.58008H12.45M12.44 18.5801H12.45M13.44 12.5801C13.44 13.1324 12.9923 13.5801 12.44 13.5801C11.8877 13.5801 11.44 13.1324 11.44 12.5801C11.44 12.0278 11.8877 11.5801 12.44 11.5801C12.9923 11.5801 13.44 12.0278 13.44 12.5801ZM13.44 18.5801C13.44 19.1324 12.9923 19.5801 12.44 19.5801C11.8877 19.5801 11.44 19.1324 11.44 18.5801C11.44 18.0278 11.8877 17.5801 12.44 17.5801C12.9923 17.5801 13.44 18.0278 13.44 18.5801ZM13.44 6.58008C13.44 7.13236 12.9923 7.58008 12.44 7.58008C11.8877 7.58008 11.44 7.13236 11.44 6.58008C11.44 6.02779 11.8877 5.58008 12.44 5.58008C12.9923 5.58008 13.44 6.02779 13.44 6.58008Z" stroke="#131A29" stroke-width="2" stroke-linecap="round" stroke-linejoin="round"/>
</svg>
